<svg width="19" height="21" viewBox="0 0 19 21" fill="none" xmlns="http://www.w3.org/2000/svg">
<path d="M13.0453 9.21842V4.94286C13.0453 2.97508 11.4501 1.37988 9.48236 1.37988C7.51459 1.37988 5.91939 2.97508 5.91939 4.94286L5.91939 9.21842M16.709 7.32482L17.909 18.7263C17.9755 19.3582 17.4815 19.9073 16.8458 19.9073H2.11888C1.81568 19.9077 1.52661 19.7792 1.32365 19.554C1.12069 19.3287 1.02294 19.0279 1.05474 18.7263L2.2557 7.32482C2.31308 6.78083 2.77189 6.36795 3.31889 6.36805H15.6458C16.1931 6.36805 16.652 6.78135 16.709 7.32482ZM6.27568 9.21842C6.27568 9.4152 6.11616 9.57472 5.91939 9.57472C5.72261 9.57472 5.56309 9.4152 5.56309 9.21842C5.56309 9.02165 5.72261 8.86213 5.91939 8.86213C6.11616 8.86213 6.27568 9.02165 6.27568 9.21842ZM13.4016 9.21842C13.4016 9.4152 13.2421 9.57472 13.0453 9.57472C12.8486 9.57472 12.689 9.4152 12.689 9.21842C12.689 9.02165 12.8486 8.86213 13.0453 8.86213C13.2421 8.86213 13.4016 9.02165 13.4016 9.21842Z" stroke="white" stroke-width="1.5" stroke-linecap="round" stroke-linejoin="round"/>
</svg>
