<svg width="20" height="20" viewBox="0 0 20 20" fill="none" xmlns="http://www.w3.org/2000/svg">
<path d="M15.9829 16.725C14.5663 14.8495 12.3513 13.7479 10.0009 13.75C7.65046 13.7479 5.43544 14.8495 4.01886 16.725M15.9829 16.725C18.7744 14.242 19.7406 10.2925 18.4123 6.80049C17.084 3.30852 13.7364 1.00031 10.0004 1.00031C6.26428 1.00031 2.9167 3.30852 1.58839 6.80049C0.260085 10.2925 1.2273 14.242 4.01886 16.725M15.9829 16.725C14.3369 18.1932 12.2065 19.0032 10.0009 19C7.79489 19.0034 5.66509 18.1934 4.01886 16.725M13.0009 7.75001C13.0009 9.40686 11.6577 10.75 10.0009 10.75C8.344 10.75 7.00086 9.40686 7.00086 7.75001C7.00086 6.09315 8.344 4.75001 10.0009 4.75001C11.6577 4.75001 13.0009 6.09315 13.0009 7.75001Z" stroke="#9BADAD" stroke-width="1.5" stroke-linecap="round" stroke-linejoin="round"/>
</svg>
