<svg xmlns="http://www.w3.org/2000/svg" xmlns:xlink="http://www.w3.org/1999/xlink" viewBox="0 0 600 600" width="600" height="600" preserveAspectRatio="xMidYMid meet" style="width: 100%; height: 100%; transform: translate3d(0px, 0px, 0px); content-visibility: visible;"><defs><clipPath id="__lottie_element_16"><rect width="600" height="600" x="0" y="0"></rect></clipPath><filter id="__lottie_element_22" x="-100%" y="-100%" width="300%" height="300%"><feGaussianBlur result="filter_result_0" stdDeviation="23.49 23.49" edgeMode="duplicate"></feGaussianBlur></filter><filter id="__lottie_element_25" x="-100%" y="-100%" width="300%" height="300%"><feGaussianBlur result="filter_result_0" stdDeviation="23.49 23.49" edgeMode="duplicate"></feGaussianBlur></filter><filter id="__lottie_element_28" x="-100%" y="-100%" width="300%" height="300%"><feGaussianBlur result="filter_result_0" stdDeviation="23.49 23.49" edgeMode="duplicate"></feGaussianBlur></filter></defs><g clip-path="url(#__lottie_element_16)"><g filter="url(#__lottie_element_28)" style="display: none;" transform="matrix(0,0,0,0,300,300)" opacity="1"><path fill="rgb(254,245,189)" fill-opacity="1" d=" M-2.439988374710083,-790.3399658203125 C2.439988374710083,42.33998107910156 1.2777284383773804,4.005970001220703 19.854270935058594,-55.02397155761719 C1.2777284383773804,4.005970001220703 -8.52723217010498,11.092939376831055 207.93124389648438,-190.96493530273438 C-8.52723217010498,11.092939376831055 -0.36600160598754883,2.3622395992279053 51.384002685546875,-23.494239807128906 C-0.36600160598754883,2.3622395992279053 -38.70001220703125,1.1999796628952026 786.7000122070312,-1.1999796628952026 C-38.70001220703125,1.1999796628952026 -0.36600160598754883,0.03771970421075821 51.384002685546875,21.094280242919922 C-0.36600160598754883,0.03771970421075821 -10.12861156463623,-10.48862075805664 238.64862060546875,223.0086212158203 C-10.12861156463623,-10.48862075805664 1.2777284383773804,-1.6060104370117188 19.854270935058594,52.6240119934082 C1.2777284383773804,-1.6060104370117188 2.439988374710083,-39.94002151489258 -2.439988374710083,787.9400024414062 C2.439988374710083,-39.94002151489258 3.602248430252075,-1.6060104370117188 -24.734249114990234,52.6240119934082 C3.602248430252075,-1.6060104370117188 12.035618782043457,-7.6742706298828125 -186.50161743164062,169.02427673339844 C12.035618782043457,-7.6742706298828125 5.245978355407715,0.03771970421075821 -56.263980865478516,21.094280242919922 C5.245978355407715,0.03771970421075821 43.57999038696289,1.1999796628952026 -791.5800170898438,-1.1999796628952026 C43.57999038696289,1.1999796628952026 5.245978355407715,2.3622395992279053 -56.263980865478516,-23.494239807128906 C5.245978355407715,2.3622395992279053 12.511368751525879,9.96720027923584 -195.6273651123047,-169.37120056152344 C12.511368751525879,9.96720027923584 3.602248430252075,4.005970001220703 -24.734249114990234,-55.02397155761719 C3.602248430252075,4.005970001220703 2.439988374710083,42.33998107910156 -2.439988374710083,-790.3399658203125z"></path></g><g filter="url(#__lottie_element_25)" style="display: none;" transform="matrix(0,0,0,0,300,300)" opacity="1"><path fill="rgb(253,220,1)" fill-opacity="1" d=" M-2.439988374710083,-790.3399658203125 C2.439988374710083,42.33998107910156 1.2777284383773804,4.005970001220703 19.854270935058594,-55.02397155761719 C1.2777284383773804,4.005970001220703 -8.52723217010498,11.092939376831055 207.93124389648438,-190.96493530273438 C-8.52723217010498,11.092939376831055 -0.36600160598754883,2.3622395992279053 51.384002685546875,-23.494239807128906 C-0.36600160598754883,2.3622395992279053 -38.70001220703125,1.1999796628952026 786.7000122070312,-1.1999796628952026 C-38.70001220703125,1.1999796628952026 -0.36600160598754883,0.03771970421075821 51.384002685546875,21.094280242919922 C-0.36600160598754883,0.03771970421075821 -10.12861156463623,-10.48862075805664 238.64862060546875,223.0086212158203 C-10.12861156463623,-10.48862075805664 1.2777284383773804,-1.6060104370117188 19.854270935058594,52.6240119934082 C1.2777284383773804,-1.6060104370117188 2.439988374710083,-39.94002151489258 -2.439988374710083,787.9400024414062 C2.439988374710083,-39.94002151489258 3.602248430252075,-1.6060104370117188 -24.734249114990234,52.6240119934082 C3.602248430252075,-1.6060104370117188 12.035618782043457,-7.6742706298828125 -186.50161743164062,169.02427673339844 C12.035618782043457,-7.6742706298828125 5.245978355407715,0.03771970421075821 -56.263980865478516,21.094280242919922 C5.245978355407715,0.03771970421075821 43.57999038696289,1.1999796628952026 -791.5800170898438,-1.1999796628952026 C43.57999038696289,1.1999796628952026 5.245978355407715,2.3622395992279053 -56.263980865478516,-23.494239807128906 C5.245978355407715,2.3622395992279053 12.511368751525879,9.96720027923584 -195.6273651123047,-169.37120056152344 C12.511368751525879,9.96720027923584 3.602248430252075,4.005970001220703 -24.734249114990234,-55.02397155761719 C3.602248430252075,4.005970001220703 2.439988374710083,42.33998107910156 -2.439988374710083,-790.3399658203125z"></path></g><g filter="url(#__lottie_element_22)" style="display: none;" transform="matrix(0,0,0,0,300,300)" opacity="1"><path fill="rgb(247,225,82)" fill-opacity="1" d=" M-2.439988374710083,-790.3399658203125 C2.439988374710083,42.33998107910156 1.2777284383773804,4.005970001220703 19.854270935058594,-55.02397155761719 C1.2777284383773804,4.005970001220703 -8.52723217010498,11.092939376831055 207.93124389648438,-190.96493530273438 C-8.52723217010498,11.092939376831055 -0.36600160598754883,2.3622395992279053 51.384002685546875,-23.494239807128906 C-0.36600160598754883,2.3622395992279053 -38.70001220703125,1.1999796628952026 786.7000122070312,-1.1999796628952026 C-38.70001220703125,1.1999796628952026 -0.36600160598754883,0.03771970421075821 51.384002685546875,21.094280242919922 C-0.36600160598754883,0.03771970421075821 -10.12861156463623,-10.48862075805664 238.64862060546875,223.0086212158203 C-10.12861156463623,-10.48862075805664 1.2777284383773804,-1.6060104370117188 19.854270935058594,52.6240119934082 C1.2777284383773804,-1.6060104370117188 2.439988374710083,-39.94002151489258 -2.439988374710083,787.9400024414062 C2.439988374710083,-39.94002151489258 3.602248430252075,-1.6060104370117188 -24.734249114990234,52.6240119934082 C3.602248430252075,-1.6060104370117188 12.035618782043457,-7.6742706298828125 -186.50161743164062,169.02427673339844 C12.035618782043457,-7.6742706298828125 5.245978355407715,0.03771970421075821 -56.263980865478516,21.094280242919922 C5.245978355407715,0.03771970421075821 43.57999038696289,1.1999796628952026 -791.5800170898438,-1.1999796628952026 C43.57999038696289,1.1999796628952026 5.245978355407715,2.3622395992279053 -56.263980865478516,-23.494239807128906 C5.245978355407715,2.3622395992279053 12.511368751525879,9.96720027923584 -195.6273651123047,-169.37120056152344 C12.511368751525879,9.96720027923584 3.602248430252075,4.005970001220703 -24.734249114990234,-55.02397155761719 C3.602248430252075,4.005970001220703 2.439988374710083,42.33998107910156 -2.439988374710083,-790.3399658203125z"></path></g><g transform="matrix(0,0,0,0,300,300)" opacity="1" style="display: none;"><path fill="rgb(254,245,189)" fill-opacity="1" d=" M-2.439988374710083,-790.3399658203125 C2.439988374710083,42.33998107910156 1.2777284383773804,4.005970001220703 19.854270935058594,-55.02397155761719 C1.2777284383773804,4.005970001220703 -8.52723217010498,11.092939376831055 207.93124389648438,-190.96493530273438 C-8.52723217010498,11.092939376831055 -0.36600160598754883,2.3622395992279053 51.384002685546875,-23.494239807128906 C-0.36600160598754883,2.3622395992279053 -38.70001220703125,1.1999796628952026 786.7000122070312,-1.1999796628952026 C-38.70001220703125,1.1999796628952026 -0.36600160598754883,0.03771970421075821 51.384002685546875,21.094280242919922 C-0.36600160598754883,0.03771970421075821 -10.12861156463623,-10.48862075805664 238.64862060546875,223.0086212158203 C-10.12861156463623,-10.48862075805664 1.2777284383773804,-1.6060104370117188 19.854270935058594,52.6240119934082 C1.2777284383773804,-1.6060104370117188 2.439988374710083,-39.94002151489258 -2.439988374710083,787.9400024414062 C2.439988374710083,-39.94002151489258 3.602248430252075,-1.6060104370117188 -24.734249114990234,52.6240119934082 C3.602248430252075,-1.6060104370117188 12.035618782043457,-7.6742706298828125 -186.50161743164062,169.02427673339844 C12.035618782043457,-7.6742706298828125 5.245978355407715,0.03771970421075821 -56.263980865478516,21.094280242919922 C5.245978355407715,0.03771970421075821 43.57999038696289,1.1999796628952026 -791.5800170898438,-1.1999796628952026 C43.57999038696289,1.1999796628952026 5.245978355407715,2.3622395992279053 -56.263980865478516,-23.494239807128906 C5.245978355407715,2.3622395992279053 12.511368751525879,9.96720027923584 -195.6273651123047,-169.37120056152344 C12.511368751525879,9.96720027923584 3.602248430252075,4.005970001220703 -24.734249114990234,-55.02397155761719 C3.602248430252075,4.005970001220703 2.439988374710083,42.33998107910156 -2.439988374710083,-790.3399658203125z"></path></g></g></svg>