<svg width="20" height="21" viewBox="0 0 20 21" fill="none" xmlns="http://www.w3.org/2000/svg">
<path d="M7.879 5.79634C9.05 4.77134 10.95 4.77134 12.121 5.79634C13.293 6.82134 13.293 8.48334 12.121 9.50834C11.918 9.68734 11.691 9.83434 11.451 9.95034C10.706 10.3113 10.001 10.9493 10.001 11.7773V12.5273M19 10.2773C19 15.2479 14.9706 19.2773 10 19.2773C5.02944 19.2773 1 15.2479 1 10.2773C1 5.30678 5.02944 1.27734 10 1.27734C14.9706 1.27734 19 5.30678 19 10.2773ZM10 15.5273H10.008V15.5353H10V15.5273Z" stroke="#9BADAD" stroke-width="1.5" stroke-linecap="round" stroke-linejoin="round"/>
</svg>
