<svg width="20" height="17" viewBox="0 0 20 17" fill="none" xmlns="http://www.w3.org/2000/svg">
<path d="M6.54999 14.1647C6.54999 14.9306 5.9291 15.5515 5.16319 15.5515C4.39729 15.5515 3.7764 14.9306 3.7764 14.1647M6.54999 14.1647C6.54999 13.3988 5.9291 12.7779 5.16319 12.7779C4.39729 12.7779 3.7764 13.3988 3.7764 14.1647M6.54999 14.1647H12.0972M3.7764 14.1647H2.0429C1.46847 14.1647 1.00281 13.699 1.00281 13.1246V10.0043M12.0972 14.1647H14.1774M12.0972 14.1647V10.0043M1.00281 10.0043L1.00281 2.94553C0.999762 2.42112 1.39394 1.97942 1.91532 1.923C4.99682 1.60314 8.10316 1.60314 11.1847 1.923C11.707 1.97662 12.0972 2.4204 12.0972 2.94553V3.83123M1.00281 10.0043H12.0972M16.951 14.1647C16.951 14.9306 16.3301 15.5515 15.5642 15.5515C14.7983 15.5515 14.1774 14.9306 14.1774 14.1647M16.951 14.1647C16.951 13.3988 16.3301 12.7779 15.5642 12.7779C14.7983 12.7779 14.1774 13.3988 14.1774 14.1647M16.951 14.1647H17.991C18.5652 14.1647 19.0348 13.6987 18.9988 13.1255C18.813 10.0724 17.7848 7.13048 16.0283 4.62633C15.6893 4.15104 15.1507 3.85789 14.5675 3.83123L12.0972 3.83123M12.0972 3.83123V10.0043" stroke="#9BADAD" stroke-width="1.5" stroke-linecap="round" stroke-linejoin="round"/>
</svg>
